<svg width="1920" height="1080" viewBox="0 0 1920 1080" fill="none" xmlns="http://www.w3.org/2000/svg">
  <defs>
    <linearGradient id="bg" x1="0" y1="0" x2="1920" y2="1080" gradientUnits="userSpaceOnUse">
      <stop stop-color="#0F172A"/>
      <stop offset="0.5" stop-color="#0B3A5B"/>
      <stop offset="1" stop-color="#065F5B"/>
    </linearGradient>
    <linearGradient id="card" x1="0" y1="0" x2="1" y2="1">
      <stop stop-color="#22D3EE" stop-opacity="0.35"/>
      <stop offset="1" stop-color="#3B82F6" stop-opacity="0.08"/>
    </linearGradient>
    <filter id="blur" x="-100" y="-100" width="2120" height="1280" filterUnits="userSpaceOnUse">
      <feGaussianBlur stdDeviation="40"/>
    </filter>
  </defs>

  <rect width="1920" height="1080" fill="url(#bg)"/>

  <g filter="url(#blur)" opacity="0.6">
    <circle cx="220" cy="200" r="120" fill="#22D3EE"/>
    <circle cx="1720" cy="880" r="180" fill="#34D399"/>
    <circle cx="1420" cy="180" r="140" fill="#60A5FA"/>
  </g>

  <g opacity="0.25" stroke="#E2E8F0">
    <path d="M260 300H540"/>
    <path d="M540 300V430"/>
    <path d="M540 430H860"/>
    <path d="M860 430V570"/>
    <path d="M860 570H1260"/>
    <path d="M1260 570V760"/>
    <path d="M1260 760H1630"/>
  </g>

  <g>
    <rect x="180" y="220" width="220" height="140" rx="18" fill="url(#card)" stroke="#67E8F9" stroke-opacity="0.45"/>
    <rect x="460" y="240" width="180" height="120" rx="16" fill="url(#card)" stroke="#93C5FD" stroke-opacity="0.45"/>
    <rect x="760" y="360" width="220" height="140" rx="18" fill="url(#card)" stroke="#67E8F9" stroke-opacity="0.45"/>
    <rect x="1070" y="500" width="240" height="140" rx="18" fill="url(#card)" stroke="#6EE7B7" stroke-opacity="0.45"/>
    <rect x="1410" y="690" width="280" height="160" rx="20" fill="url(#card)" stroke="#93C5FD" stroke-opacity="0.45"/>
  </g>

  <g fill="#E2E8F0" opacity="0.9">
    <circle cx="230" cy="255" r="7"/>
    <circle cx="252" cy="255" r="7"/>
    <circle cx="274" cy="255" r="7"/>
  </g>

  <g fill="#CBD5E1" opacity="0.75">
    <rect x="220" y="282" width="130" height="10" rx="5"/>
    <rect x="220" y="304" width="110" height="10" rx="5"/>
    <rect x="220" y="326" width="145" height="10" rx="5"/>
  </g>

  <g opacity="0.22" stroke="#E2E8F0">
    <path d="M140 840H650"/>
    <path d="M650 840V920"/>
    <path d="M650 920H1120"/>
    <path d="M1120 920V980"/>
    <path d="M1120 980H1750"/>
  </g>
</svg>
